<?xml version="1.0" encoding="utf-8"?>
<!-- Generator: Adobe Illustrator 19.1.0, SVG Export Plug-In . SVG Version: 6.00 Build 0)  -->
<svg version="1.1" id="Layer_1" xmlns="http://www.w3.org/2000/svg" xmlns:xlink="http://www.w3.org/1999/xlink" x="0px" y="0px"
	 viewBox="0 0 376.5 438" style="enable-background:new 0 0 376.5 438;" xml:space="preserve">
<style type="text/css">
	.st0{fill:none;}
	.st1{fill:#FFFFFF;}
</style>
<circle class="st0" cx="171" cy="234.3" r="89.4"/>
<path class="st0" d="M154.1,244.7c24.6,0,24.6,15.3,49.1,15.3c24.6,0,24.6-15.3,49.1-15.3c2.8,0,5.2,0.1,7.3,0.3
	c0.4-3.5,0.6-7.1,0.6-10.7c0-49.4-40-89.4-89.4-89.4s-89.4,40-89.4,89.4c0,6.6,0.7,13,2.1,19.2c5.7,3.5,12.2,6.5,21.3,6.5
	C129.6,260,129.6,244.7,154.1,244.7z"/>
<g>
	<path class="st1" d="M193.8,298.3c33.9,0,61.9-25.5,65.8-58.3c-1.6-0.1-3.4-0.2-5.4-0.2c-18.2,0-18.2,11.3-36.4,11.3
		c-18.2,0-18.2-11.3-36.4-11.3c-18.2,0-18.2,11.3-36.4,11.3c-6.8,0-11.5-2.3-15.8-4.8C135.6,276,162.1,298.3,193.8,298.3z"/>
	<path class="st1" d="M298.7,43.6H90c-28.2,0-51.3,23.1-51.3,51.3v227.4c0,18.9,10.4,35.6,25.8,44.5c-0.5,1.9-0.8,3.8-0.8,5.8
		c0,12.4,10.6,22.5,23.8,22.5c12.7,0,23.1-9.5,23.7-21.5h167.6c0.6,11.9,11,21.5,23.7,21.5c13.1,0,23.8-10.1,23.8-22.5
		c0-2.2-0.3-4.4-1-6.4c14.8-9,24.7-25.3,24.7-43.8V94.9C350,66.6,326.9,43.6,298.7,43.6z M194.4,133.6c49.4,0,89.4,40,89.4,89.4
		c0,3.6-0.2,7.2-0.6,10.7c-5.3,44.3-43,78.7-88.7,78.7c-42.8,0-78.5-30-87.3-70.2c-1.4-6.2-2.1-12.6-2.1-19.2
		C105,173.6,145,133.6,194.4,133.6z"/>
</g>
</svg>
