<?xml version="1.0" encoding="utf-8"?>
<!-- Generator: Adobe Illustrator 19.1.0, SVG Export Plug-In . SVG Version: 6.00 Build 0)  -->
<svg version="1.1" id="Layer_1" xmlns="http://www.w3.org/2000/svg" xmlns:xlink="http://www.w3.org/1999/xlink" x="0px" y="0px"
	 viewBox="-109 201.9 376.5 438" style="enable-background:new -109 201.9 376.5 438;" xml:space="preserve">
<style type="text/css">
	.st0{fill:none;stroke:#FFFFFF;stroke-width:9;stroke-miterlimit:10;}
	.st1{fill:none;stroke:#FFFFFF;stroke-width:13;stroke-miterlimit:10;}
</style>
<path class="st0" d="M84.7,491.6c33.9,0,61.9-25.5,65.8-58.3c-1.6-0.1-3.4-0.2-5.4-0.2c-18.2,0-18.2,11.3-36.4,11.3
	s-18.2-11.3-36.4-11.3S54.2,444.4,36,444.4c-6.8,0-11.5-2.3-15.8-4.8C26.5,469.3,53,491.6,84.7,491.6z"/>
<path class="st1" d="M189.7,245.5H-19c-28.2,0-51.3,23.1-51.3,51.3v227.4c0,18.9,10.4,35.6,25.8,44.5c-0.5,1.9-0.8,3.8-0.8,5.8
	c0,12.4,10.6,22.5,23.8,22.5c12.7,0,23.1-9.5,23.7-21.5h167.6c0.6,11.9,11,21.5,23.7,21.5c13.1,0,23.8-10.1,23.8-22.5
	c0-2.2-0.3-4.4-1-6.4c14.8-9,24.7-25.3,24.7-43.8V296.8C241,268.5,217.9,245.5,189.7,245.5z M85.4,335.5c49.4,0,89.4,40,89.4,89.4
	c0,3.6-0.2,7.2-0.6,10.7c-5.3,44.3-43,78.7-88.7,78.7c-42.8,0-78.5-30-87.3-70.2c-1.4-6.2-2.1-12.6-2.1-19.2
	C-4,375.5,36,335.5,85.4,335.5z"/>
<circle class="st0" cx="-20.9" cy="287.8" r="17"/>
</svg>
